<svg xmlns="http://www.w3.org/2000/svg" viewBox="-6.25867 -3.196 172.584 39.5253" fill="none" preserveAspectRatio="xMidYMid meet">
<g clip-path="url(#clip0_11500_269366)">
<path d="M48.7272 19.3581C47.9999 19.3581 46.8072 19.2724 46.1381 19.2439V26.7031C46.141 26.7768 46.129 26.8503 46.1027 26.9194C46.0764 26.9885 46.0364 27.0518 45.985 27.1056C45.9335 27.1594 45.8717 27.2026 45.8031 27.2328C45.7345 27.2629 45.6605 27.2794 45.5854 27.2812H42.6763C42.5213 27.2794 42.3734 27.2176 42.2644 27.1094C42.1555 27.0012 42.0945 26.8552 42.0945 26.7031V7.03799C42.0945 6.46696 42.4436 6.2671 43.0254 6.18144C44.9145 5.92417 46.82 5.80013 48.7272 5.81027C53.2145 5.81027 57.1199 7.35206 57.1199 12.4129V12.6698C57.1418 17.7307 53.2363 19.3581 48.7272 19.3581ZM53.0908 12.4129C53.0908 10.0145 51.6363 9.10086 48.7272 9.10086C48.1163 9.10086 46.6618 9.15797 46.1381 9.21507V16.0175C46.6036 16.0175 48.2327 16.1032 48.7272 16.1032C51.8763 16.1032 53.0908 14.9611 53.0908 12.6698V12.4129Z" fill="#2D2A26" />
<path d="M62.1891 9.01521H59.3673C59.2095 9.01356 59.0583 8.95276 58.9447 8.84527C58.8312 8.73777 58.7638 8.59172 58.7563 8.43703V5.92447C58.7638 5.77045 58.8315 5.62518 58.9452 5.51884C59.059 5.4125 59.2101 5.35326 59.3673 5.35344H62.1891C62.2661 5.35249 62.3425 5.36657 62.414 5.39484C62.4854 5.42311 62.5504 5.46503 62.6052 5.51815C62.66 5.57127 62.7035 5.63454 62.7332 5.70429C62.7629 5.77404 62.7782 5.84888 62.7782 5.92447V8.43703C62.7782 8.59038 62.7161 8.73744 62.6056 8.84587C62.4951 8.95429 62.3453 9.01521 62.1891 9.01521ZM62.1018 27.2812H59.4254C59.2679 27.2721 59.1198 27.2042 59.0116 27.0914C58.9035 26.9786 58.8433 26.8294 58.8436 26.6745V11.7276C58.8436 11.5762 58.9049 11.4309 59.014 11.3238C59.1231 11.2168 59.2711 11.1566 59.4254 11.1566H62.1018C62.2568 11.1566 62.4055 11.2165 62.5158 11.3234C62.6261 11.4303 62.689 11.5755 62.6909 11.7276V26.6745C62.6893 26.8301 62.6276 26.9793 62.5183 27.0919C62.4089 27.2045 62.26 27.2722 62.1018 27.2812Z" fill="#2D2A26" />
<path d="M77.971 20.5288H68.5165V20.6144C68.5165 22.2776 69.2437 24.2476 72.0074 24.2476C74.1383 24.2476 76.1456 24.0763 77.3674 23.9621H77.4546C77.7456 23.9621 77.9783 24.1049 77.9783 24.3904V26.2748C77.9783 26.7316 77.891 26.9315 77.3674 26.9886C75.5084 27.3593 73.6129 27.5245 71.7165 27.4811C68.8074 27.4811 64.6692 25.9322 64.6692 20.3003V18.159C64.6692 13.6977 67.2001 10.8997 71.6583 10.8997C76.1165 10.8997 78.5456 13.9547 78.5456 18.2161V19.815C78.5456 20.2718 78.3783 20.5288 77.971 20.5288ZM74.6837 17.7307C74.6837 15.5036 73.4256 14.2117 71.6219 14.2117C69.8183 14.2117 68.5092 15.4751 68.5092 17.7307V17.8449H74.6837V17.7307Z" fill="#2D2A26" />
<path d="M92.8292 26.7602C90.9259 27.2256 88.9725 27.4652 87.011 27.474C82.3201 27.474 80.051 24.7544 80.051 20.2932V18.1304C80.051 13.6692 82.3201 10.9925 87.011 10.9925C87.9453 11.0008 88.8781 11.0676 89.8038 11.1923V6.09582C89.8038 5.94437 89.8651 5.79912 89.9742 5.69203C90.0833 5.58494 90.2313 5.52478 90.3856 5.52478H93.0692C93.2235 5.52478 93.3715 5.58494 93.4806 5.69203C93.5897 5.79912 93.651 5.94437 93.651 6.09582V25.9893C93.6147 26.4104 93.4983 26.5889 92.8292 26.7602ZM89.7674 14.2759C88.8412 14.1566 87.9087 14.0899 86.9747 14.0761C84.4656 14.0761 83.8547 15.8249 83.8547 18.1661V20.3646C83.8547 22.713 84.4656 24.4546 86.9747 24.4546C87.9096 24.4638 88.8437 24.397 89.7674 24.2548V14.2759Z" fill="#2D2A26" />
<path d="M116.414 27.2813H113.738C113.581 27.2722 113.432 27.2042 113.324 27.0914C113.216 26.9786 113.156 26.8295 113.156 26.6745V16.9598C113.156 14.7542 112.691 14.1831 111.054 14.1831C110.11 14.2206 109.185 14.4645 108.349 14.8969C108.433 15.5813 108.472 16.2704 108.465 16.9598V26.6745C108.466 26.8295 108.406 26.9786 108.297 27.0914C108.189 27.2042 108.041 27.2722 107.884 27.2813H105.2C105.042 27.2722 104.894 27.2042 104.786 27.0914C104.678 26.9786 104.618 26.8295 104.618 26.6745V16.9598C104.618 14.7542 104.24 14.1831 102.611 14.1831C101.655 14.2986 100.738 14.623 99.9272 15.1325V26.6745C99.9274 26.8295 99.8673 26.9786 99.7591 27.0914C99.651 27.2042 99.5029 27.2722 99.3453 27.2813H96.669C96.5114 27.2722 96.3634 27.2042 96.2552 27.0914C96.147 26.9786 96.0869 26.8295 96.0872 26.6745V11.7277C96.0872 11.6527 96.1022 11.5784 96.1314 11.5091C96.1607 11.4399 96.2035 11.3769 96.2576 11.3239C96.3116 11.2709 96.3757 11.2288 96.4463 11.2001C96.5169 11.1714 96.5926 11.1566 96.669 11.1566H99.1999C99.3542 11.1566 99.5022 11.2168 99.6113 11.3239C99.7204 11.431 99.7817 11.5762 99.7817 11.7277V12.3273C100.995 11.4621 102.45 10.9836 103.949 10.9568C105.607 10.9568 106.691 11.4422 107.36 12.2416C108.807 11.3836 110.469 10.9386 112.16 10.9568C116.124 10.9568 116.996 13.6121 116.996 16.9598V26.6745C116.997 26.8295 116.936 26.9786 116.828 27.0914C116.72 27.2042 116.572 27.2722 116.414 27.2813Z" fill="#2D2A26" />
<path d="M125.927 27.5097C121.353 27.5097 118.967 24.4761 118.967 20.3717V18.0733C118.967 13.9833 121.353 10.9354 125.927 10.9354C130.502 10.9354 132.887 13.9619 132.887 18.0733V20.386C132.887 24.4761 130.502 27.5097 125.927 27.5097ZM129.047 18.0733C129.047 15.7321 127.964 14.2117 125.927 14.2117C123.891 14.2117 122.815 15.7321 122.815 18.0733V20.386C122.815 22.7344 123.891 24.2477 125.927 24.2477C127.964 24.2477 129.047 22.7344 129.047 20.386V18.0733Z" fill="#2D2A26" />
<path d="M147.746 27.2813H145.062C144.904 27.2722 144.756 27.2042 144.648 27.0914C144.54 26.9786 144.48 26.8295 144.48 26.6745V17.3952C144.48 14.9041 144.247 14.1903 142.007 14.1903C140.841 14.2732 139.711 14.628 138.713 15.2253V26.6745C138.713 26.8295 138.653 26.9786 138.545 27.0914C138.437 27.2042 138.289 27.2722 138.131 27.2813H135.455C135.297 27.2722 135.149 27.2042 135.041 27.0914C134.933 26.9786 134.873 26.8295 134.873 26.6745V11.7277C134.873 11.6527 134.888 11.5784 134.917 11.5091C134.946 11.4399 134.989 11.3769 135.043 11.3239C135.097 11.2709 135.161 11.2288 135.232 11.2001C135.303 11.1714 135.378 11.1566 135.455 11.1566H137.986C138.14 11.1566 138.288 11.2168 138.397 11.3239C138.506 11.431 138.567 11.5762 138.567 11.7277V12.3273C139.937 11.3693 141.593 10.887 143.273 10.9568C147.469 10.9568 148.313 13.7263 148.313 17.3809V26.6603C148.317 26.8153 148.261 26.9661 148.155 27.0816C148.05 27.1971 147.903 27.2686 147.746 27.2813Z" fill="#2D2A26" />
<path d="M159.338 27.3098C158.683 27.43 158.019 27.4969 157.353 27.5097C154.065 27.5097 152.727 26.7959 152.727 22.9628V13.9833L149.985 13.5621C149.834 13.5521 149.692 13.4887 149.585 13.3837C149.478 13.2787 149.414 13.1392 149.404 12.9911V11.7063C149.404 11.5548 149.465 11.4096 149.574 11.3025C149.683 11.1954 149.831 11.1352 149.985 11.1352H152.727V8.8154C152.736 8.66598 152.8 8.52477 152.907 8.41829C153.014 8.31182 153.157 8.24743 153.309 8.23722L156.014 7.78039H156.131C156.191 7.7742 156.252 7.78079 156.309 7.79973C156.367 7.81866 156.419 7.84948 156.463 7.89011C156.507 7.93074 156.542 7.98021 156.565 8.03518C156.588 8.09015 156.599 8.14932 156.596 8.20867V11.1566H159.222C159.376 11.1566 159.524 11.2168 159.633 11.3239C159.742 11.431 159.804 11.5762 159.804 11.7277V13.4122C159.804 13.5637 159.742 13.7089 159.633 13.816C159.524 13.9231 159.376 13.9833 159.222 13.9833H156.596V22.9628C156.596 24.3904 156.684 24.5617 157.731 24.5617H159.273C159.651 24.5617 159.884 24.7045 159.884 24.99V26.7888C159.891 27.0743 159.716 27.2527 159.338 27.3098Z" fill="#2D2A26" />
<path d="M10.0144 0.0571289H6.13079C5.34989 0.0571283 4.57664 0.208206 3.85527 0.501723C3.1339 0.79524 2.47856 1.22544 1.92671 1.76772C1.37487 2.31 0.937351 2.95373 0.639174 3.66209C0.340998 4.37045 0.188013 5.12955 0.188969 5.89598V20.5002H6.13079V5.89598H10.0144V0.0571289Z" fill="#BE3527" />
<path d="M6.13103 27.3027V23.4839H0.189209V27.3027C0.189209 28.8494 0.81522 30.3327 1.92953 31.4263C3.04383 32.52 4.55516 33.1344 6.13103 33.1344H20.9892V27.3027H6.13103Z" fill="#FBB923" />
<path d="M33.8909 12.6984H27.9491V27.3027H24.0654V33.1344H27.9491C29.5249 33.1344 31.0363 32.52 32.1506 31.4263C33.2649 30.3327 33.8909 28.8493 33.8909 27.3027V12.6984Z" fill="#F89821" />
<path d="M27.949 0.0571289H13.0908V5.89598H27.949V9.71478H33.8908V5.89598C33.8918 5.12954 33.7388 4.37045 33.4406 3.66209C33.1424 2.95373 32.7049 2.31 32.1531 1.76772C31.6012 1.22544 30.9459 0.79524 30.2245 0.501723C29.5031 0.208206 28.7299 0.0571283 27.949 0.0571289Z" fill="#E76E24" />
</g>
<defs>
<clipPath id="clip0_11500_269366">
<rect width="160" height="33.5484" fill="white" />
</clipPath>
</defs>
</svg>