<svg xmlns="http://www.w3.org/2000/svg" viewBox="-12.3845 -6.19225 334.382 47.3845" preserveAspectRatio="xMidYMid meet"><defs><style>.cls-1{fill:none;}.cls-2{fill:#c9de7d;}.cls-3{fill:#a9d154;}.cls-4{fill:#8dc63f;}.cls-5{fill:#5bcbf5;}.cls-6{fill:#50b848;}.cls-7{fill:#00bdf2;}.cls-8{fill:#00b26b;}.cls-9{fill:#00ab4e;}.cls-10{fill:#00aeef;}.cls-11{fill:#00a77e;}.cls-12{fill:#00a651;}</style></defs><path d="M61.43,12.51h4.14L72.29,23,79,12.51h4.14V34.62H79.28V18.77l-7,10.42h-.12L65.25,18.83V34.62H61.43Zm25,17.31v-.07c0-3.6,2.81-5.37,6.89-5.37a13.85,13.85,0,0,1,4.48.7v-.41c0-2.36-1.45-3.63-4.14-3.63a11.67,11.67,0,0,0-4.77,1l-1-3a14.33,14.33,0,0,1,6.28-1.36c2.5,0,4.36.67,5.52,1.86a6.91,6.91,0,0,1,1.81,5.15v9.89H97.75V32.54A6.78,6.78,0,0,1,92.32,35C89.2,35,86.41,33.17,86.41,29.82Zm11.44-1.2V27.48a10.65,10.65,0,0,0-3.79-.66c-2.46,0-3.92,1-3.92,2.78v.06c0,1.61,1.42,2.53,3.25,2.53C95.92,32.19,97.85,30.74,97.85,28.62Zm7.48-16.86h4.11v3.62h-4.11Zm.16,6.19h3.82V34.62h-3.82Zm8,0h3.82v2.56a6,6,0,0,1,5.21-2.92c3.76,0,5.94,2.53,5.94,6.39V34.62h-3.82V25.14c0-2.59-1.29-4.07-3.57-4.07s-3.76,1.55-3.76,4.14v9.41h-3.82Zm24.59-5.44H142V31.08H152.8v3.54H138.1Zm17.57-.75h4.11v3.62h-4.11Zm.16,6.19h3.82V34.62h-3.82Zm7.95,0h3.82v2.56a6,6,0,0,1,5.22-2.92c3.76,0,5.94,2.53,5.94,6.39V34.62h-3.82V25.14c0-2.59-1.3-4.07-3.57-4.07s-3.77,1.55-3.77,4.14v9.41h-3.82Zm17.82,8.4v-.07c0-4.77,3.38-8.69,8.15-8.69,5.3,0,8,4.18,8,9,0,.35,0,.69-.06,1.07H185.42a4.66,4.66,0,0,0,4.8,4.24,6.08,6.08,0,0,0,4.52-2l2.24,2A8.45,8.45,0,0,1,190.16,35,8.31,8.31,0,0,1,181.6,26.35ZM194,25.11c-.25-2.46-1.71-4.39-4.24-4.39-2.34,0-4,1.81-4.32,4.39Zm12.29-12.6h3.88V21.7h10.55V12.51h3.89V34.62h-3.89V25.31H210.12v9.31h-3.88Zm21.68,13.84v-.07c0-4.77,3.39-8.69,8.16-8.69,5.3,0,8,4.18,8,9a10.1,10.1,0,0,1-.07,1.07H231.76a4.63,4.63,0,0,0,4.79,4.24,6.06,6.06,0,0,0,4.51-2l2.25,2A8.45,8.45,0,0,1,236.49,35,8.32,8.32,0,0,1,227.92,26.35Zm12.36-1.24c-.25-2.46-1.7-4.39-4.23-4.39-2.34,0-4,1.81-4.33,4.39Zm5.82,4.71v-.07c0-3.6,2.81-5.37,6.88-5.37a13.9,13.9,0,0,1,4.48.7v-.41c0-2.36-1.46-3.63-4.14-3.63a11.62,11.62,0,0,0-4.76,1l-1-3a14.33,14.33,0,0,1,6.28-1.36c2.5,0,4.36.67,5.52,1.86a6.91,6.91,0,0,1,1.81,5.15v9.89h-3.74V32.54A6.76,6.76,0,0,1,252,35C248.87,35,246.1,33.17,246.1,29.82Zm11.42-1.2V27.48a10.55,10.55,0,0,0-3.78-.66c-2.47,0-3.92,1-3.92,2.78v.06c0,1.61,1.42,2.53,3.24,2.53C255.6,32.19,257.52,30.74,257.52,28.62Zm7.65-17.06H269V34.62h-3.82ZM274,30V21.23h-2.11V18H274V13.37h3.83V18h4.48v3.28H277.8v8.18a1.83,1.83,0,0,0,2.05,2.09,4.94,4.94,0,0,0,2.36-.58v3.14a6.63,6.63,0,0,1-3.44.84C276,34.9,274,33.67,274,30Zm11.4-18.45h3.83v9a6,6,0,0,1,5.21-2.92c3.76,0,5.94,2.53,5.94,6.39V34.62h-3.83V25.14c0-2.59-1.28-4.07-3.56-4.07s-3.76,1.55-3.76,4.14v9.41h-3.83ZM301.17,15v0a4.2,4.2,0,1,1,8.39,0v0a4.2,4.2,0,1,1-8.39,0Zm7.91,0v0a3.71,3.71,0,1,0-7.42,0v0a3.68,3.68,0,0,0,3.71,3.73A3.73,3.73,0,0,0,309.08,15Zm-5.35-2.21h1.92c1,0,1.64.46,1.64,1.35a1.28,1.28,0,0,1-1,1.3l1.14,1.61h-1l-1-1.46h-.89v1.46h-.81Zm1.85,2.12c.55,0,.87-.29.87-.7s-.32-.7-.87-.7h-1v1.4Z" /><path class="cls-1" d="M26.76,19.82a31,31,0,0,0-2.57-3.54,31,31,0,0,0-2.57,3.54h0a.41.41,0,0,1-.05.09,24.89,24.89,0,0,1,2.6,4.79.19.19,0,0,0,0,.07.19.19,0,0,0,0-.07,25.45,25.45,0,0,1,2.6-4.79l0-.09Z" /><path class="cls-2" d="M34.86,34.07c0,.18,0-.53,0-.67,0-6.94,6.58-12.59,13.52-12.59V16.63a17.62,17.62,0,0,0-15,8.48h0a34.21,34.21,0,0,1,1.45,8.48C34.85,33.76,34.86,33.91,34.86,34.07Z" /><path class="cls-3" d="M28.88,23.94a28.91,28.91,0,0,0-2.07-4,25.45,25.45,0,0,0-2.6,4.79.19.19,0,0,1,0,.07A25.4,25.4,0,0,1,26,34.33v.05c0,.08,0,0,0-.05A20.14,20.14,0,0,1,28.91,24l0-.08Z" /><path class="cls-3" d="M48.38,12.47V8.29a27.33,27.33,0,0,0-18.83,8.34s0,0-.05.06a34.59,34.59,0,0,1,2,3.62h0l.06.14,0,0A24,24,0,0,1,48.38,12.47Z" /><path class="cls-4" d="M26.92,13.16h0l.11.14.08-.08h0a33.3,33.3,0,0,1,21.27-9V0A36.6,36.6,0,0,0,24.32,10.15h0l-.13.12A33.82,33.82,0,0,1,26.92,13.16Z" /><path class="cls-4" d="M21.57,19.91a.41.41,0,0,0,.05-.09h0a31,31,0,0,1,2.57-3.54l-.07-.1h0a32.74,32.74,0,0,0-2.77-2.88A34.58,34.58,0,0,0,19,16.54h0l-.09.15a24.33,24.33,0,0,1,2.65,3.17A.1.1,0,0,1,21.57,19.91Z" /><path class="cls-4" d="M16.79,20.45A35.61,35.61,0,0,0,15,25h0a.31.31,0,0,0,0,.08h0a15.92,15.92,0,0,1,2.25,8.27c0,.2,0,.5,0,.76v.14A27,27,0,0,1,19.47,24l0,0A21.84,21.84,0,0,0,16.79,20.45Z" /><path class="cls-5" d="M13.54,33.6A34.21,34.21,0,0,1,15,25.12h0A17.62,17.62,0,0,0,0,16.63v4.18c7,0,13.52,5.65,13.52,12.59v.43s0,.1,0,.11S13.53,33.75,13.54,33.6Z" /><path class="cls-6" d="M15,25.13h0a34.21,34.21,0,0,0-1.45,8.48c0,.16,0,.31,0,.47s0,.37,0,.55h3.68c0-.4,0-.81,0-1.22A15.92,15.92,0,0,0,15,25.13Z" /><path class="cls-7" d="M16.85,20.31a36.51,36.51,0,0,1,2-3.62s0-.05-.05-.06A27.33,27.33,0,0,0,0,8.29v4.18a24,24,0,0,1,16.76,8l0,0,.06-.14Z" /><path class="cls-7" d="M22.35,34.33a25.4,25.4,0,0,1,1.84-9.56.19.19,0,0,1,0-.07,24.89,24.89,0,0,0-2.6-4.79,30,30,0,0,0-2.07,4h0l0,.08a20.15,20.15,0,0,1,2.88,10.31v0Z" /><path class="cls-8" d="M26,34.33a25.4,25.4,0,0,0-1.85-9.56,25.4,25.4,0,0,0-1.84,9.56v.29H26a1.93,1.93,0,0,1,0-.24Z" /><path class="cls-9" d="M19.5,23.94a30,30,0,0,1,2.07-4,.1.1,0,0,0,0-.05,24.33,24.33,0,0,0-2.65-3.17,36.51,36.51,0,0,0-2,3.62h0l-.06.14A21.84,21.84,0,0,1,19.45,24l0,0,0-.08Z" /><path class="cls-10" d="M24.26,16.18h0l-.07.1a31,31,0,0,1,2.57,3.54h0l0,.09,0-.05a24.33,24.33,0,0,1,2.65-3.17l-.09-.15h0A32.89,32.89,0,0,0,27,13.3,32.74,32.74,0,0,0,24.26,16.18Z" /><path class="cls-10" d="M21.46,13.16a35.47,35.47,0,0,1,2.73-2.89l-.12-.12h0A36.6,36.6,0,0,0,0,0V4.18a33.28,33.28,0,0,1,21.27,9h0l.08.08.11-.14Z" /><path class="cls-10" d="M28.91,24A28.67,28.67,0,0,1,31.15,34c0,.06,0-.14,0-.55a15.92,15.92,0,0,1,2.25-8.27h0a.31.31,0,0,0,0-.08h0a32.91,32.91,0,0,0-1.78-4.58A21.84,21.84,0,0,0,28.93,24S28.92,24,28.91,24Z" /><path class="cls-11" d="M31.14,33.4c0,.41,0,.82.05,1.22h3.69c0-.18,0-.37,0-.55s0-.31,0-.47a34.21,34.21,0,0,0-1.45-8.48h0A15.92,15.92,0,0,0,31.14,33.4Z" /><path class="cls-11" d="M31.53,20.31a34.59,34.59,0,0,0-2-3.62,24.33,24.33,0,0,0-2.65,3.17l0,.05a28.91,28.91,0,0,1,2.07,4h0l0,.08s0,0,0,0a21.84,21.84,0,0,1,2.66-3.54l-.06-.14Z" /><path class="cls-12" d="M24.12,16.18h0l.07.1.07-.1h0A32.74,32.74,0,0,1,27,13.3l-.11-.14h0a33.82,33.82,0,0,0-2.73-2.89,35.47,35.47,0,0,0-2.73,2.89h0l-.11.14A32.74,32.74,0,0,1,24.12,16.18Z" /></svg>