<svg xmlns="http://www.w3.org/2000/svg" version="1.1" id="Layer_1" viewBox="-8.2304 -1.4007 145.3221 47.3775" style="enable-background:new 0 0 128.6 44.8" xml:space="preserve" preserveAspectRatio="xMidYMid meet"><style>/* Mono override */
    * { fill:#000000; stroke:#000000; }
    [fill="none"] { fill:#000000; }
    [stroke="none"] { stroke:#000000; }</style><style>.st0{fill:#000000}.st1{fill:#000000}</style><path class="st0" d="M47.3 27.5c1.9-.6 3.1-1.8 3.1-4.1 0-3.3-2.8-4.4-6-4.4h-5.8v17.5h5.8c4 0 6.9-1.3 6.9-4.9-.2-2.4-1.9-3.8-4-4.1zm-5.1-5.6H44c1.8 0 2.8.6 2.8 2.1 0 1.6-.9 2.3-2.9 2.3h-1.7v-4.4zm1.9 11.8h-1.9v-4.8h2.1c2.1 0 3.1.8 3.1 2.5s-1.1 2.3-3.3 2.3zm19.4-5.5c0-3.4-1.7-4.7-5.1-4.7-2.7 0-4.4 1.1-5.2 1.8l1.5 2.1c.5-.3 1.6-1.2 3.3-1.2 1.6 0 2.1.7 2.1 1.8v.7h-.4c-3.4 0-6.8 1.2-6.8 4.5 0 2.3 1.7 3.6 3.9 3.6 1.8 0 3-1 3.6-1.7 0 .4.1 1 .2 1.4H64c-.2-.8-.4-2-.4-3.8v-4.5zm-3.5 5c-.4.4-1.1 1.1-2.4 1.1-.8 0-1.6-.4-1.6-1.3 0-1.5 1.4-2.1 3.5-2.1h.5v2.3zm13.6-9.4L71 32.2h-.1l-2.8-8.4h-3.7l4.8 12.5-.5 1.3c-.5 1.4-1.1 2.2-2.9 2.2-.8 0-1-.1-1.2-.1l-.6 2.8c.3.1.9.2 2 .2 3.5 0 4.8-1.8 6-4.8l5.3-14.2h-3.7zM87.2 36.9c-6 0-9-4.3-9-9.1s3.1-9 9-9c2.3 0 3.9.5 5.2 1.4l-1.6 2.7c-1-.6-2.1-1-3.6-1-3.3 0-5 2.6-5 5.8 0 3.3 1.7 6.1 5.1 6.1 1.9 0 3-.6 4-1.3l1.5 2.6c-.9.8-3 1.8-5.6 1.8M104.6 32.8v-4.6c0-3.4-1.7-4.7-5.1-4.7-2.7 0-4.4 1.1-5.2 1.8l1.5 2.1c.5-.3 1.6-1.2 3.3-1.2 1.6 0 2.1.7 2.1 1.8v.7h-.4c-3.4 0-6.8 1.2-6.8 4.5 0 2.3 1.7 3.6 3.9 3.6 1.8 0 3-1 3.6-1.7 0 .4.1 1 .2 1.4h3.4c-.3-.7-.5-2-.5-3.7zm-3.4.4c-.4.4-1.1 1.1-2.4 1.1-.8 0-1.5-.4-1.5-1.3 0-1.5 1.4-2.1 3.5-2.1h.4v2.3zM114.6 26.9c-.2-.1-.6-.3-1.3-.3-1.6 0-2.5 1.4-2.8 1.9v8.1H107V23.8h3.5v1.7c.5-.9 1.6-2.1 3.2-2.1 1 0 1.4.2 1.7.3l-.8 3.2zM121.4 23.5c-3.5 0-6.3 2.6-6.3 6.6 0 4.1 2.4 6.8 6.7 6.8 2.6 0 3.9-.8 4.8-1.2l-1.1-2.3c-.6.3-1.6.9-3.3.9-2.1 0-3.1-1.3-3.3-3.3h8.1c.4-4.7-1.6-7.5-5.6-7.5zm-2.6 5.1c.2-1.7 1.1-2.6 2.5-2.6 1.6 0 2.2 1.2 2.2 2.6h-4.7zM17.8 13.4V20s4.6-.8 9.7-1.7c5.1-.9 6.7-7.7 6.7-7.7l-16.4 2.8zM3.9 27.7l8.9-1.5v-4.3l-4.5.7c-4.4.7-4.4 5.1-4.4 5.1M10 8.1v10.7l4.4-.8v-6.4c0-4.2-4.4-3.5-4.4-3.5M16 30.8c0 6.7 7 5.5 7 5.5V22l-7 1.2v7.6" /><path class="st1" d="M12.8 15.9s-2.2.4-6.6 1.1c-4.4.7-4.4 5-4.4 5l11-1.9v-4.2zM17.8 21.5v6.7s.8-.2 7.8-1.3c7-1.2 7-7.9 7-7.9l-14.8 2.5zM22.8 7.3c0-4.9-6.8-5.4-6.8-5.4v15.9l6.8-1.1V7.3zM9.9 28.5c0 4.3 4.5 3.6 4.5 3.6v-8.6l-4.5.8v4.2" /></svg>